<mxfile host="Electron" modified="2022-05-11T17:53:09.249Z" agent="5.0 (X11; Linux x86_64) AppleWebKit/537.36 (KHTML, like Gecko) draw.io/18.0.1 Chrome/100.0.4896.143 Electron/18.2.0 Safari/537.36" etag="uSjHFbOrbTQCT-DmwDV0" compressed="false" version="18.0.1" type="device">
  <diagram id="UE22mHZrhsa5b33594gn" name="Page-1">
    <mxGraphModel dx="925" dy="1060" grid="1" gridSize="10" guides="1" tooltips="1" connect="1" arrows="1" fold="1" page="1" pageScale="1" pageWidth="827" pageHeight="1169" math="0" shadow="0">
      <root>
        <mxCell id="0" />
        <mxCell id="1" parent="0" />
        <mxCell id="rdDmTrpfYO3070jajBlG-77" value="&amp;nbsp;Gitlab Pages" style="rounded=0;whiteSpace=wrap;html=1;align=left;verticalAlign=top;container=0;fontStyle=1;sketch=0;" parent="1" vertex="1">
          <mxGeometry x="550" y="385" width="140" height="95" as="geometry" />
        </mxCell>
        <mxCell id="rdDmTrpfYO3070jajBlG-21" value="&amp;nbsp;Gitlab CI Runner" style="rounded=0;whiteSpace=wrap;html=1;align=left;verticalAlign=top;fontStyle=1;sketch=0;" parent="1" vertex="1">
          <mxGeometry x="180" y="130" width="330" height="420" as="geometry" />
        </mxCell>
        <mxCell id="rdDmTrpfYO3070jajBlG-19" value="&amp;nbsp;Nextflow Workflow" style="rounded=0;whiteSpace=wrap;html=1;horizontal=1;verticalAlign=top;align=left;fillColor=#f9f7ed;strokeColor=#36393d;fontStyle=1;sketch=0;" parent="1" vertex="1">
          <mxGeometry x="320" y="230" width="170" height="300" as="geometry" />
        </mxCell>
        <mxCell id="rdDmTrpfYO3070jajBlG-1" value="Process 1" style="rounded=1;whiteSpace=wrap;html=1;fillColor=#ffcc99;strokeColor=#36393d;sketch=0;" parent="1" vertex="1">
          <mxGeometry x="350" y="265" width="80" height="40" as="geometry" />
        </mxCell>
        <mxCell id="rdDmTrpfYO3070jajBlG-3" value="App A Container" style="shape=cylinder3;whiteSpace=wrap;html=1;boundedLbl=1;backgroundOutline=1;size=15;sketch=0;" parent="1" vertex="1">
          <mxGeometry x="200" y="250" width="60" height="70" as="geometry" />
        </mxCell>
        <mxCell id="rdDmTrpfYO3070jajBlG-4" value="executed in" style="endArrow=open;html=1;exitX=0;exitY=0.5;exitDx=0;exitDy=0;spacingBottom=15;dashed=1;endFill=0;targetPerimeterSpacing=2;sketch=0;" parent="1" source="rdDmTrpfYO3070jajBlG-1" target="rdDmTrpfYO3070jajBlG-3" edge="1">
          <mxGeometry width="50" height="50" relative="1" as="geometry">
            <mxPoint x="490" y="435" as="sourcePoint" />
            <mxPoint x="540" y="385" as="targetPoint" />
          </mxGeometry>
        </mxCell>
        <mxCell id="rdDmTrpfYO3070jajBlG-5" value="Process 2" style="rounded=1;whiteSpace=wrap;html=1;fillColor=#ffcc99;strokeColor=#36393d;sketch=0;" parent="1" vertex="1">
          <mxGeometry x="350" y="345" width="80" height="40" as="geometry" />
        </mxCell>
        <mxCell id="rdDmTrpfYO3070jajBlG-6" value="App B&lt;br&gt;Container" style="shape=cylinder3;whiteSpace=wrap;html=1;boundedLbl=1;backgroundOutline=1;size=15;sketch=0;" parent="1" vertex="1">
          <mxGeometry x="200" y="330" width="60" height="70" as="geometry" />
        </mxCell>
        <mxCell id="rdDmTrpfYO3070jajBlG-7" value="executed in" style="endArrow=open;html=1;exitX=0;exitY=0.5;exitDx=0;exitDy=0;spacingBottom=15;dashed=1;endFill=0;targetPerimeterSpacing=2;sketch=0;" parent="1" source="rdDmTrpfYO3070jajBlG-5" target="rdDmTrpfYO3070jajBlG-6" edge="1">
          <mxGeometry width="50" height="50" relative="1" as="geometry">
            <mxPoint x="490" y="515" as="sourcePoint" />
            <mxPoint x="540" y="465" as="targetPoint" />
          </mxGeometry>
        </mxCell>
        <mxCell id="rdDmTrpfYO3070jajBlG-8" value="" style="endArrow=none;dashed=1;html=1;dashPattern=1 3;strokeWidth=2;sketch=0;" parent="1" edge="1">
          <mxGeometry width="50" height="50" relative="1" as="geometry">
            <mxPoint x="229.5" y="410" as="sourcePoint" />
            <mxPoint x="230" y="450" as="targetPoint" />
          </mxGeometry>
        </mxCell>
        <mxCell id="rdDmTrpfYO3070jajBlG-9" value="" style="endArrow=none;dashed=1;html=1;dashPattern=1 3;strokeWidth=2;sketch=0;" parent="1" edge="1">
          <mxGeometry width="50" height="50" relative="1" as="geometry">
            <mxPoint x="390" y="390" as="sourcePoint" />
            <mxPoint x="390" y="460" as="targetPoint" />
          </mxGeometry>
        </mxCell>
        <mxCell id="rdDmTrpfYO3070jajBlG-16" value="Process n" style="rounded=1;whiteSpace=wrap;html=1;fillColor=#ffcc99;strokeColor=#36393d;sketch=0;" parent="1" vertex="1">
          <mxGeometry x="350" y="465" width="80" height="40" as="geometry" />
        </mxCell>
        <mxCell id="rdDmTrpfYO3070jajBlG-17" value="App C&lt;br&gt;Container" style="shape=cylinder3;whiteSpace=wrap;html=1;boundedLbl=1;backgroundOutline=1;size=15;sketch=0;" parent="1" vertex="1">
          <mxGeometry x="200" y="450" width="60" height="70" as="geometry" />
        </mxCell>
        <mxCell id="rdDmTrpfYO3070jajBlG-18" value="executed in" style="endArrow=open;html=1;exitX=0;exitY=0.5;exitDx=0;exitDy=0;spacingBottom=15;dashed=1;endFill=0;targetPerimeterSpacing=2;sketch=0;" parent="1" source="rdDmTrpfYO3070jajBlG-16" target="rdDmTrpfYO3070jajBlG-17" edge="1">
          <mxGeometry width="50" height="50" relative="1" as="geometry">
            <mxPoint x="490" y="635" as="sourcePoint" />
            <mxPoint x="540" y="585" as="targetPoint" />
          </mxGeometry>
        </mxCell>
        <mxCell id="rdDmTrpfYO3070jajBlG-22" value="OntoFlow Container" style="shape=cylinder3;whiteSpace=wrap;html=1;boundedLbl=1;backgroundOutline=1;size=15;sketch=0;" parent="1" vertex="1">
          <mxGeometry x="200" y="160" width="60" height="70" as="geometry" />
        </mxCell>
        <mxCell id="rdDmTrpfYO3070jajBlG-24" value="Container Registry" style="rounded=0;whiteSpace=wrap;html=1;align=center;fontStyle=1;sketch=0;" parent="1" vertex="1">
          <mxGeometry y="300" width="140" height="40" as="geometry" />
        </mxCell>
        <mxCell id="rdDmTrpfYO3070jajBlG-27" value="" style="endArrow=none;html=1;spacingBottom=15;dashed=1;exitX=0;exitY=0.5;exitDx=0;exitDy=0;exitPerimeter=0;endFill=0;sketch=0;" parent="1" source="rdDmTrpfYO3070jajBlG-3" edge="1">
          <mxGeometry x="-0.0146" y="-3" width="50" height="50" relative="1" as="geometry">
            <mxPoint x="370" y="225" as="sourcePoint" />
            <mxPoint x="160" y="285" as="targetPoint" />
            <Array as="points">
              <mxPoint x="160" y="285" />
            </Array>
            <mxPoint as="offset" />
          </mxGeometry>
        </mxCell>
        <mxCell id="xsBjcsJuhwPGH1qz9Wol-3" value="" style="edgeStyle=orthogonalEdgeStyle;rounded=0;orthogonalLoop=1;jettySize=auto;html=1;labelBackgroundColor=default;labelBorderColor=none;sketch=0;" edge="1" parent="1" source="rdDmTrpfYO3070jajBlG-42" target="xsBjcsJuhwPGH1qz9Wol-1">
          <mxGeometry relative="1" as="geometry" />
        </mxCell>
        <mxCell id="xsBjcsJuhwPGH1qz9Wol-4" value="" style="edgeStyle=orthogonalEdgeStyle;rounded=0;orthogonalLoop=1;jettySize=auto;html=1;labelBackgroundColor=default;labelBorderColor=none;sketch=0;" edge="1" parent="1" source="rdDmTrpfYO3070jajBlG-42" target="xsBjcsJuhwPGH1qz9Wol-1">
          <mxGeometry relative="1" as="geometry" />
        </mxCell>
        <mxCell id="rdDmTrpfYO3070jajBlG-42" value="&amp;nbsp;Ontology Repository" style="rounded=0;whiteSpace=wrap;html=1;align=left;verticalAlign=top;container=0;fontStyle=1;sketch=0;" parent="1" vertex="1">
          <mxGeometry x="550" y="10" width="140" height="190" as="geometry" />
        </mxCell>
        <mxCell id="rdDmTrpfYO3070jajBlG-43" value="SHACL&lt;br&gt;Shapes" style="shape=hexagon;rounded=0;whiteSpace=wrap;html=1;align=center;container=0;sketch=0;" parent="1" vertex="1">
          <mxGeometry x="570" y="40" width="100" height="40" as="geometry" />
        </mxCell>
        <mxCell id="rdDmTrpfYO3070jajBlG-44" value="OWL Files&lt;br&gt;" style="shape=hexagon;rounded=0;whiteSpace=wrap;html=1;align=center;container=0;sketch=0;" parent="1" vertex="1">
          <mxGeometry x="570" y="90" width="100" height="40" as="geometry" />
        </mxCell>
        <mxCell id="rdDmTrpfYO3070jajBlG-45" value="Chowlk&lt;br&gt;Diagrams" style="shape=hexagon;rounded=0;whiteSpace=wrap;html=1;align=center;container=0;sketch=0;" parent="1" vertex="1">
          <mxGeometry x="570" y="140" width="100" height="40" as="geometry" />
        </mxCell>
        <mxCell id="rdDmTrpfYO3070jajBlG-49" value="" style="endArrow=none;html=1;endFill=0;startArrow=open;startFill=0;strokeWidth=2;rounded=0;endSize=5;startSize=5;targetPerimeterSpacing=0;sourcePerimeterSpacing=3;sketch=0;" parent="1" target="rdDmTrpfYO3070jajBlG-43" edge="1">
          <mxGeometry width="50" height="50" relative="1" as="geometry">
            <mxPoint x="470" y="230" as="sourcePoint" />
            <mxPoint x="820" y="155" as="targetPoint" />
            <Array as="points">
              <mxPoint x="470" y="60" />
            </Array>
          </mxGeometry>
        </mxCell>
        <mxCell id="rdDmTrpfYO3070jajBlG-52" value="" style="endArrow=none;html=1;strokeWidth=2;rounded=0;endFill=0;startArrow=open;startFill=0;startSize=5;endSize=5;sourcePerimeterSpacing=2;sketch=0;" parent="1" source="xsBjcsJuhwPGH1qz9Wol-8" edge="1">
          <mxGeometry width="50" height="50" relative="1" as="geometry">
            <mxPoint x="430" y="655" as="sourcePoint" />
            <mxPoint x="470" y="440" as="targetPoint" />
            <Array as="points" />
          </mxGeometry>
        </mxCell>
        <mxCell id="rdDmTrpfYO3070jajBlG-55" value="" style="endArrow=open;html=1;endFill=0;startArrow=open;startFill=0;strokeWidth=2;endSize=5;startSize=5;targetPerimeterSpacing=2;sourcePerimeterSpacing=2;sketch=0;" parent="1" edge="1" target="rdDmTrpfYO3070jajBlG-1">
          <mxGeometry width="50" height="50" relative="1" as="geometry">
            <mxPoint x="470" y="285" as="sourcePoint" />
            <mxPoint x="430" y="284.5" as="targetPoint" />
          </mxGeometry>
        </mxCell>
        <mxCell id="rdDmTrpfYO3070jajBlG-56" value="" style="endArrow=open;html=1;endFill=0;startArrow=open;startFill=0;strokeWidth=2;endSize=5;startSize=5;targetPerimeterSpacing=2;sketch=0;" parent="1" edge="1" target="rdDmTrpfYO3070jajBlG-16">
          <mxGeometry width="50" height="50" relative="1" as="geometry">
            <mxPoint x="470" y="484.5" as="sourcePoint" />
            <mxPoint x="430" y="484.5" as="targetPoint" />
          </mxGeometry>
        </mxCell>
        <mxCell id="rdDmTrpfYO3070jajBlG-57" value="" style="endArrow=open;html=1;endFill=0;startArrow=open;startFill=0;strokeWidth=2;endSize=5;startSize=5;targetPerimeterSpacing=2;sketch=0;" parent="1" edge="1" target="rdDmTrpfYO3070jajBlG-5">
          <mxGeometry width="50" height="50" relative="1" as="geometry">
            <mxPoint x="470" y="364.5" as="sourcePoint" />
            <mxPoint x="430" y="364.5" as="targetPoint" />
          </mxGeometry>
        </mxCell>
        <mxCell id="rdDmTrpfYO3070jajBlG-59" value="" style="shape=umlActor;verticalLabelPosition=bottom;verticalAlign=top;html=1;outlineConnect=0;align=center;sketch=0;" parent="1" vertex="1">
          <mxGeometry x="760" y="110" width="30" height="60" as="geometry" />
        </mxCell>
        <mxCell id="rdDmTrpfYO3070jajBlG-65" value="saves to" style="endArrow=open;html=1;spacingBottom=15;endFill=0;labelBackgroundColor=default;labelBorderColor=none;startArrow=none;startFill=0;strokeWidth=2;targetPerimeterSpacing=2;endSize=5;startSize=5;sketch=0;" parent="1" source="xsBjcsJuhwPGH1qz9Wol-1" target="rdDmTrpfYO3070jajBlG-45" edge="1">
          <mxGeometry y="-30" width="50" height="50" relative="1" as="geometry">
            <mxPoint x="350" y="155" as="sourcePoint" />
            <mxPoint x="400" y="-120" as="targetPoint" />
            <mxPoint as="offset" />
          </mxGeometry>
        </mxCell>
        <mxCell id="rdDmTrpfYO3070jajBlG-70" value="" style="endArrow=open;html=1;spacingBottom=15;dashed=1;endFill=0;rounded=0;sourcePerimeterSpacing=10;targetPerimeterSpacing=2;sketch=0;" parent="1" target="rdDmTrpfYO3070jajBlG-43" edge="1" source="rdDmTrpfYO3070jajBlG-59">
          <mxGeometry width="50" height="50" relative="1" as="geometry">
            <mxPoint x="130" as="sourcePoint" />
            <mxPoint x="380" as="targetPoint" />
            <Array as="points">
              <mxPoint x="710" y="140" />
              <mxPoint x="710" y="60" />
            </Array>
          </mxGeometry>
        </mxCell>
        <mxCell id="rdDmTrpfYO3070jajBlG-75" value="" style="endArrow=open;html=1;spacingBottom=15;dashed=1;endFill=0;rounded=0;sourcePerimeterSpacing=10;targetPerimeterSpacing=2;sketch=0;" parent="1" target="rdDmTrpfYO3070jajBlG-44" edge="1" source="rdDmTrpfYO3070jajBlG-59">
          <mxGeometry width="50" height="50" relative="1" as="geometry">
            <mxPoint x="130" y="-50" as="sourcePoint" />
            <mxPoint x="400" y="-50" as="targetPoint" />
            <Array as="points">
              <mxPoint x="710" y="140" />
              <mxPoint x="710" y="110" />
            </Array>
          </mxGeometry>
        </mxCell>
        <mxCell id="rdDmTrpfYO3070jajBlG-87" value="" style="points=[];aspect=fixed;html=1;align=center;shadow=0;dashed=0;image;image=img/lib/allied_telesis/computer_and_terminals/Personal_Computer.svg;sketch=0;" parent="1" vertex="1">
          <mxGeometry x="752.1999999999999" y="480" width="45.6" height="61.800000000000004" as="geometry" />
        </mxCell>
        <mxCell id="rdDmTrpfYO3070jajBlG-88" value="consumes" style="endArrow=open;html=1;spacingBottom=15;dashed=1;endFill=0;rounded=0;targetPerimeterSpacing=2;sourcePerimeterSpacing=8;sketch=0;" parent="1" target="xsBjcsJuhwPGH1qz9Wol-8" edge="1" source="rdDmTrpfYO3070jajBlG-87">
          <mxGeometry x="0.049" y="20" width="50" height="50" relative="1" as="geometry">
            <mxPoint x="70" y="690" as="sourcePoint" />
            <mxPoint x="260" y="645" as="targetPoint" />
            <Array as="points">
              <mxPoint x="775" y="440" />
            </Array>
            <mxPoint as="offset" />
          </mxGeometry>
        </mxCell>
        <mxCell id="rdDmTrpfYO3070jajBlG-90" value="pulled from&lt;br&gt;" style="endArrow=open;html=1;spacingBottom=15;dashed=1;exitX=0;exitY=0.5;exitDx=0;exitDy=0;exitPerimeter=0;endFill=0;rounded=0;targetPerimeterSpacing=2;sketch=0;" parent="1" source="rdDmTrpfYO3070jajBlG-22" target="rdDmTrpfYO3070jajBlG-24" edge="1">
          <mxGeometry x="1" y="42" width="50" height="50" relative="1" as="geometry">
            <mxPoint x="200" y="195" as="sourcePoint" />
            <mxPoint x="100" y="320" as="targetPoint" />
            <Array as="points">
              <mxPoint x="160" y="195" />
              <mxPoint x="160" y="320" />
            </Array>
            <mxPoint x="-12" y="-2" as="offset" />
          </mxGeometry>
        </mxCell>
        <mxCell id="rdDmTrpfYO3070jajBlG-92" value="" style="endArrow=none;html=1;spacingBottom=15;dashed=1;exitX=0;exitY=0;exitDx=0;exitDy=45;exitPerimeter=0;endFill=0;rounded=0;sketch=0;" parent="1" source="rdDmTrpfYO3070jajBlG-6" edge="1">
          <mxGeometry width="50" height="50" relative="1" as="geometry">
            <mxPoint x="200" y="375" as="sourcePoint" />
            <mxPoint x="160" y="320" as="targetPoint" />
            <Array as="points">
              <mxPoint x="160" y="375" />
              <mxPoint x="160" y="320" />
            </Array>
          </mxGeometry>
        </mxCell>
        <mxCell id="rdDmTrpfYO3070jajBlG-95" value="" style="endArrow=none;html=1;spacingBottom=15;dashed=1;exitX=0;exitY=0.5;exitDx=0;exitDy=0;exitPerimeter=0;endFill=0;rounded=0;sketch=0;" parent="1" source="rdDmTrpfYO3070jajBlG-17" edge="1">
          <mxGeometry width="50" height="50" relative="1" as="geometry">
            <mxPoint x="200" y="485" as="sourcePoint" />
            <mxPoint x="160" y="380" as="targetPoint" />
            <Array as="points">
              <mxPoint x="160" y="485" />
              <mxPoint x="160" y="380" />
              <mxPoint x="160" y="370" />
            </Array>
          </mxGeometry>
        </mxCell>
        <mxCell id="rdDmTrpfYO3070jajBlG-31" value="&amp;nbsp;OntoFlow Repository" style="rounded=0;whiteSpace=wrap;html=1;align=left;verticalAlign=top;fontStyle=1;sketch=0;shadow=0;" parent="1" vertex="1">
          <mxGeometry y="10" width="140" height="190" as="geometry" />
        </mxCell>
        <mxCell id="rdDmTrpfYO3070jajBlG-32" value="Dockerfiles" style="shape=hexagon;rounded=0;whiteSpace=wrap;html=1;align=center;sketch=0;" parent="1" vertex="1">
          <mxGeometry x="22.5" y="140" width="95" height="40" as="geometry" />
        </mxCell>
        <mxCell id="rdDmTrpfYO3070jajBlG-33" value="Workflow Definition" style="shape=hexagon;rounded=0;whiteSpace=wrap;html=1;align=center;sketch=0;" parent="1" vertex="1">
          <mxGeometry x="22.5" y="90" width="95" height="40" as="geometry" />
        </mxCell>
        <mxCell id="rdDmTrpfYO3070jajBlG-34" value="SHACL&lt;br&gt;Shapes" style="shape=hexagon;rounded=0;whiteSpace=wrap;html=1;align=center;sketch=0;" parent="1" vertex="1">
          <mxGeometry x="22.5" y="40" width="95" height="40" as="geometry" />
        </mxCell>
        <mxCell id="rdDmTrpfYO3070jajBlG-37" value="Images build from" style="endArrow=none;html=1;spacingBottom=15;dashed=1;endFill=0;startArrow=open;startFill=0;targetPerimeterSpacing=0;sourcePerimeterSpacing=2;sketch=0;" parent="1" source="rdDmTrpfYO3070jajBlG-32" target="rdDmTrpfYO3070jajBlG-24" edge="1">
          <mxGeometry width="50" height="50" relative="1" as="geometry">
            <mxPoint x="240" y="205" as="sourcePoint" />
            <mxPoint x="70" y="300" as="targetPoint" />
          </mxGeometry>
        </mxCell>
        <mxCell id="rdDmTrpfYO3070jajBlG-63" value="&amp;nbsp;draw.io" style="rounded=0;whiteSpace=wrap;html=1;align=left;horizontal=1;verticalAlign=top;fontStyle=1;sketch=0;" parent="1" vertex="1">
          <mxGeometry x="550" y="230" width="140" height="85" as="geometry" />
        </mxCell>
        <mxCell id="rdDmTrpfYO3070jajBlG-98" value="executed in" style="endArrow=open;html=1;spacingBottom=15;dashed=1;endFill=0;exitX=0.25;exitY=0;exitDx=0;exitDy=0;rounded=0;targetPerimeterSpacing=2;sketch=0;" parent="1" source="rdDmTrpfYO3070jajBlG-19" target="rdDmTrpfYO3070jajBlG-22" edge="1">
          <mxGeometry x="0.4203" width="50" height="50" relative="1" as="geometry">
            <mxPoint x="370" y="230" as="sourcePoint" />
            <mxPoint x="260" y="195" as="targetPoint" />
            <Array as="points">
              <mxPoint x="363" y="195" />
            </Array>
            <mxPoint as="offset" />
          </mxGeometry>
        </mxCell>
        <mxCell id="rdDmTrpfYO3070jajBlG-40" value="pulled from" style="endArrow=open;html=1;spacingBottom=15;dashed=1;endFill=0;rounded=0;targetPerimeterSpacing=2;sketch=0;" parent="1" target="rdDmTrpfYO3070jajBlG-33" edge="1">
          <mxGeometry width="50" height="50" relative="1" as="geometry">
            <mxPoint x="410" y="230" as="sourcePoint" />
            <mxPoint x="80" y="100" as="targetPoint" />
            <Array as="points">
              <mxPoint x="410" y="110" />
            </Array>
          </mxGeometry>
        </mxCell>
        <mxCell id="x2SmJ_OQAYyNHYIsauPd-2" value="views&lt;br&gt;" style="endArrow=open;html=1;spacingBottom=15;dashed=1;endFill=0;rounded=0;targetPerimeterSpacing=2;sourcePerimeterSpacing=10;sketch=0;" parent="1" target="xsBjcsJuhwPGH1qz9Wol-8" edge="1" source="rdDmTrpfYO3070jajBlG-59">
          <mxGeometry x="0.6092" y="-10" width="50" height="50" relative="1" as="geometry">
            <mxPoint x="70" y="600" as="sourcePoint" />
            <mxPoint x="260" y="645" as="targetPoint" />
            <Array as="points">
              <mxPoint x="775" y="440" />
            </Array>
            <mxPoint as="offset" />
          </mxGeometry>
        </mxCell>
        <mxCell id="ijkgVB973a-GeAAkDp9l-5" value="" style="endArrow=none;html=1;startArrow=none;startFill=0;strokeWidth=2;sourcePerimeterSpacing=0;endSize=5;startSize=5;sketch=0;" parent="1" target="rdDmTrpfYO3070jajBlG-34" edge="1">
          <mxGeometry width="50" height="50" relative="1" as="geometry">
            <mxPoint x="470" y="60" as="sourcePoint" />
            <mxPoint x="440" y="70" as="targetPoint" />
          </mxGeometry>
        </mxCell>
        <mxCell id="K7jtTP-AI8jsyRevvTAu-1" value="commit triggers" style="endArrow=open;html=1;spacingBottom=15;dashed=1;endFill=0;rounded=0;exitX=0;exitY=0.108;exitDx=0;exitDy=0;exitPerimeter=0;sourcePerimeterSpacing=13;targetPerimeterSpacing=14;entryX=0.791;entryY=-0.006;entryDx=0;entryDy=0;entryPerimeter=0;sketch=0;shadow=0;" parent="1" source="rdDmTrpfYO3070jajBlG-42" edge="1" target="rdDmTrpfYO3070jajBlG-21">
          <mxGeometry x="-0.4547" width="50" height="50" relative="1" as="geometry">
            <mxPoint x="372.5" y="240" as="sourcePoint" />
            <mxPoint x="440" y="120" as="targetPoint" />
            <mxPoint as="offset" />
            <Array as="points">
              <mxPoint x="440" y="30" />
            </Array>
          </mxGeometry>
        </mxCell>
        <mxCell id="xsBjcsJuhwPGH1qz9Wol-1" value="Chowlk&lt;br&gt;Diagrams" style="shape=hexagon;rounded=0;whiteSpace=wrap;html=1;align=center;container=0;sketch=0;" vertex="1" parent="1">
          <mxGeometry x="570" y="260" width="100" height="40" as="geometry" />
        </mxCell>
        <mxCell id="xsBjcsJuhwPGH1qz9Wol-5" value="" style="endArrow=none;html=1;endFill=0;startArrow=none;startFill=0;strokeWidth=2;rounded=0;endSize=5;startSize=5;sketch=0;" edge="1" parent="1" target="rdDmTrpfYO3070jajBlG-44">
          <mxGeometry width="50" height="50" relative="1" as="geometry">
            <mxPoint x="470" y="60" as="sourcePoint" />
            <mxPoint x="580" y="70" as="targetPoint" />
            <Array as="points">
              <mxPoint x="530" y="60" />
              <mxPoint x="530" y="110" />
            </Array>
          </mxGeometry>
        </mxCell>
        <mxCell id="xsBjcsJuhwPGH1qz9Wol-6" value="" style="endArrow=none;html=1;endFill=0;startArrow=none;startFill=0;strokeWidth=2;rounded=0;startSize=5;endSize=5;sketch=0;" edge="1" parent="1" target="rdDmTrpfYO3070jajBlG-45">
          <mxGeometry width="50" height="50" relative="1" as="geometry">
            <mxPoint x="470" y="60" as="sourcePoint" />
            <mxPoint x="580" y="120" as="targetPoint" />
            <Array as="points">
              <mxPoint x="530" y="60" />
              <mxPoint x="530" y="160" />
            </Array>
          </mxGeometry>
        </mxCell>
        <mxCell id="rdDmTrpfYO3070jajBlG-69" value="edits" style="endArrow=open;html=1;spacingBottom=15;dashed=1;endFill=0;startArrow=none;startFill=0;sourcePerimeterSpacing=10;targetPerimeterSpacing=2;rounded=0;sketch=0;" parent="1" target="xsBjcsJuhwPGH1qz9Wol-1" edge="1" source="rdDmTrpfYO3070jajBlG-59">
          <mxGeometry x="-0.8174" width="50" height="50" relative="1" as="geometry">
            <mxPoint x="60" y="-100" as="sourcePoint" />
            <mxPoint x="580" y="272.5" as="targetPoint" />
            <Array as="points">
              <mxPoint x="710" y="140" />
              <mxPoint x="710" y="280" />
            </Array>
            <mxPoint as="offset" />
          </mxGeometry>
        </mxCell>
        <mxCell id="xsBjcsJuhwPGH1qz9Wol-8" value="&lt;span style=&quot;text-align: left;&quot;&gt;&amp;nbsp;Ontology &lt;br&gt;Artifact &lt;br&gt;Package&lt;/span&gt;" style="shape=hexagon;rounded=0;whiteSpace=wrap;html=1;align=center;container=0;sketch=0;" vertex="1" parent="1">
          <mxGeometry x="570" y="415" width="100" height="50" as="geometry" />
        </mxCell>
        <mxCell id="xsBjcsJuhwPGH1qz9Wol-9" value="" style="endArrow=none;html=1;strokeWidth=2;rounded=0;endFill=0;startArrow=none;startFill=0;startSize=5;endSize=5;sourcePerimeterSpacing=0;targetPerimeterSpacing=0;sketch=0;" edge="1" parent="1">
          <mxGeometry width="50" height="50" relative="1" as="geometry">
            <mxPoint x="470" y="485" as="sourcePoint" />
            <mxPoint x="470" y="230" as="targetPoint" />
            <Array as="points" />
          </mxGeometry>
        </mxCell>
      </root>
    </mxGraphModel>
  </diagram>
</mxfile>
